<?xml version="1.0" standalone="no"?>
<!DOCTYPE svg PUBLIC "-//W3C//DTD SVG 20010904//EN"
 "http://www.w3.org/TR/2001/REC-SVG-20010904/DTD/svg10.dtd">
<svg version="1.0" xmlns="http://www.w3.org/2000/svg"
 width="2rem" height="2rem" viewBox="0 0 512.000000 512.000000"
 preserveAspectRatio="xMidYMid meet">

<g transform="translate(0.000000,512.000000) scale(0.100000,-0.100000)"
fill="#000000" stroke="none">
<path d="M770 4624 c-106 -29 -209 -117 -258 -222 l-27 -57 0 -1785 0 -1785
27 -57 c31 -67 92 -135 156 -177 100 -64 33 -61 1487 -61 867 0 1335 4 1365
11 115 26 217 108 272 218 32 65 33 68 36 227 l4 162 -43 -9 c-24 -5 -97 -11
-161 -15 l-118 -7 0 -109 c0 -102 -1 -110 -25 -133 l-24 -25 -1306 0 -1306 0
-24 25 -25 24 0 1711 0 1711 25 24 24 25 1306 0 1306 0 24 -25 25 -24 0 -409
0 -409 123 -6 c67 -4 139 -11 160 -16 l38 -9 -3 461 -3 462 -27 58 c-52 110
-162 199 -279 226 -29 7 -510 10 -1369 10 -1133 0 -1333 -2 -1380 -15z"/>
<path d="M1035 3817 c-43 -24 -85 -91 -85 -137 0 -46 42 -113 85 -137 l40 -23
917 3 c908 2 917 2 944 23 52 39 69 71 69 133 0 48 -5 64 -29 95 -53 70 1 66
-998 66 l-903 0 -40 -23z"/>
<path d="M3370 3296 c-215 -45 -387 -139 -548 -299 -402 -397 -410 -1060 -18
-1466 150 -155 310 -250 509 -302 115 -31 330 -37 451 -15 406 77 725 373 834
775 23 86 26 114 26 266 0 153 -3 180 -27 269 -98 365 -373 643 -742 752 -78
23 -112 27 -255 30 -113 2 -185 -1 -230 -10z m384 -326 c216 -55 383 -192 481
-395 52 -109 75 -205 75 -320 0 -338 -231 -633 -562 -717 -67 -17 -102 -19
-202 -16 -209 9 -347 69 -496 218 -146 145 -212 306 -212 515 0 208 66 369
212 516 108 110 198 161 355 204 77 21 257 19 349 -5z"/>
<path d="M3495 2791 c-71 -43 -85 -85 -85 -247 l0 -124 -112 0 c-62 0 -131 -5
-152 -10 -142 -32 -176 -207 -56 -287 30 -21 44 -23 176 -23 l144 0 0 -133 c0
-118 3 -138 23 -177 41 -83 130 -113 213 -74 68 32 78 61 84 229 l5 150 150 5
c135 4 153 7 181 27 89 63 82 206 -13 264 -33 20 -52 23 -180 27 l-143 5 0
134 c0 155 -10 189 -69 229 -45 30 -121 33 -166 5z"/>
<path d="M1035 2697 c-43 -24 -85 -91 -85 -137 0 -46 42 -113 85 -137 l40 -23
552 3 c542 2 552 2 580 23 98 73 98 195 0 268 -28 21 -38 21 -580 23 l-552 3
-40 -23z"/>
<path d="M1035 1577 c-43 -24 -85 -91 -85 -137 0 -46 42 -113 85 -137 l40 -23
721 3 721 2 35 27 c94 71 82 214 -22 269 -33 18 -73 19 -745 19 l-710 0 -40
-23z"/>
</g>
</svg>
